<svg width="160" height="160" viewBox="0 0 160 160" fill="none" xmlns="http://www.w3.org/2000/svg" role="img" aria-labelledby="title desc">
  <title id="title">Tanakorn Sawatna profile mark</title>
  <desc id="desc">A geometric monogram profile mark with the initials TS.</desc>
  <rect width="160" height="160" rx="28" fill="#0E7C7B"/>
  <circle cx="118" cy="42" r="18" fill="#D98324"/>
  <path d="M35 50H98V68H76V116H57V68H35V50Z" fill="#FBFAF6"/>
  <path d="M96 116C88 116 81 114 75 110L82 94C87 98 92 100 98 100C104 100 108 98 108 94C108 91 106 89 100 87L93 85C82 81 77 75 77 66C77 55 87 48 101 48C109 48 116 50 122 55L113 69C109 66 105 64 100 64C95 64 92 66 92 69C92 72 94 74 100 76L108 79C119 83 124 89 124 99C124 110 113 116 96 116Z" fill="#FBFAF6"/>
</svg>
